<?xml version="1.0" encoding="utf-8" standalone="no"?>
<!DOCTYPE svg PUBLIC "-//W3C//DTD SVG 1.1//EN"
  "http://www.w3.org/Graphics/SVG/1.1/DTD/svg11.dtd">
<!-- Created with matplotlib (https://matplotlib.org/) -->
<svg height="428.686125pt" version="1.1" viewBox="0 0 820.081844 428.686125" width="820.081844pt" xmlns="http://www.w3.org/2000/svg" xmlns:xlink="http://www.w3.org/1999/xlink">
 <defs>
  <style type="text/css">
*{stroke-linecap:butt;stroke-linejoin:round;}
  </style>
 </defs>
 <g id="figure_1">
  <g id="patch_1">
   <path d="M 0 428.686125 
L 820.081844 428.686125 
L 820.081844 0 
L 0 0 
z
" style="fill:#ffffff;"/>
  </g>
  <g id="axes_1">
   <g id="patch_2">
    <path d="M 282.045437 174.151725 
C 264.541824 174.151725 247.269959 178.173174 231.566529 185.904847 
C 215.863099 193.636521 202.143933 204.873684 191.470769 218.746682 
L 282.045437 288.430125 
L 282.045437 174.151725 
z
" style="fill:#0cc0aa;stroke:#ffffff;stroke-linejoin:miter;stroke-width:0.7;"/>
   </g>
   <g id="patch_3">
    <path d="M 191.470769 218.746682 
C 191.470769 218.746682 191.470769 218.746682 191.470769 218.746682 
L 282.045437 288.430125 
L 191.470769 218.746682 
z
" style="stroke:#ffffff;stroke-linejoin:miter;stroke-width:0.7;"/>
   </g>
   <g id="patch_4">
    <path d="M 191.470769 218.746682 
C 175.739761 239.193875 167.386905 264.377558 167.780326 290.172859 
C 168.173748 315.96816 177.290727 340.885398 193.637981 360.843344 
L 282.045437 288.430125 
L 191.470769 218.746682 
z
" style="fill:#ae603d;stroke:#ffffff;stroke-linejoin:miter;stroke-width:0.7;"/>
   </g>
   <g id="patch_5">
    <path d="M 193.637981 360.843344 
C 205.849388 375.751941 221.635839 387.332187 239.523425 394.502889 
C 257.411011 401.67359 276.825157 404.204414 295.953253 401.859069 
C 315.08135 399.513724 333.308973 392.367545 348.934295 381.087739 
C 364.559617 369.807933 377.080728 354.756823 385.328591 337.339663 
C 393.576453 319.922503 397.286134 300.698757 396.111276 281.463258 
C 394.936418 262.22776 388.91476 243.59838 378.608516 227.31446 
C 368.302273 211.03054 354.042496 197.615143 337.160555 188.320802 
C 320.278614 179.026461 301.316781 174.151725 282.045437 174.151725 
L 282.045437 288.430125 
L 193.637981 360.843344 
z
" style="fill:#943105;stroke:#ffffff;stroke-linejoin:miter;stroke-width:0.7;"/>
   </g>
   <g id="patch_6">
    <path d="M 282.045437 188.436525 
C 266.729776 188.436525 251.616894 191.955293 237.876393 198.720507 
C 224.135892 205.485722 212.131621 215.318239 202.792603 227.457112 
L 282.045437 288.430125 
L 282.045437 188.436525 
z
" style="fill:#0cc0aa;stroke:#ffffff;stroke-linejoin:miter;stroke-width:0.7;"/>
   </g>
   <g id="patch_7">
    <path d="M 202.792603 227.457112 
C 195.957635 236.341216 190.664904 246.311694 187.136133 256.950861 
C 183.607363 267.590028 181.892527 278.747213 182.063465 289.955017 
C 182.234403 301.162821 184.288693 312.262521 188.140277 322.789125 
C 191.99186 333.315729 197.586192 343.120161 204.688913 351.791692 
C 211.791634 360.463223 220.302156 367.879048 229.863954 373.7285 
C 239.425753 379.577953 249.903415 383.778195 260.858008 386.153269 
C 271.812602 388.528343 283.088989 389.044613 294.214776 387.680451 
C 305.340564 386.316289 316.158191 383.091015 326.214482 378.139743 
C 336.270773 373.18847 345.423313 366.581318 353.288681 358.595076 
C 361.154049 350.608833 367.620857 341.356599 372.418197 331.225971 
C 377.215536 321.095343 380.275467 310.229789 381.469803 299.084492 
C 382.664139 287.939194 381.975965 276.671992 379.434111 265.754892 
C 376.892258 254.837792 372.532721 244.425401 366.538131 234.953918 
C 360.543542 225.482435 352.998796 217.085994 344.219957 210.116339 
C 335.441119 203.146684 325.552514 197.702519 314.968398 194.011913 
C 304.384281 190.321307 293.254545 188.436525 282.045437 188.436525 
L 282.045437 288.430125 
L 202.792603 227.457112 
z
" style="fill:#943105;stroke:#ffffff;stroke-linejoin:miter;stroke-width:0.7;"/>
   </g>
   <g id="matplotlib.axis_1"/>
   <g id="matplotlib.axis_2"/>
   <g id="text_1">
    <text style="font-family:DejaVu Sans;font-size:6.5px;font-style:normal;font-weight:roman;text-anchor:end;" transform="rotate(-296.213593, 227.433455, 181.570847)" x="227.433455" y="181.570847">cellular response to type II interferon</text>
   </g>
   <g id="text_2">
    <text style="font-family:DejaVu Sans;font-size:6.5px;font-style:normal;font-weight:roman;text-anchor:end;" transform="rotate(-0.873789, 162.094423, 292.053381)" x="162.094423" y="292.053381">negative regulation of innate immune response</text>
   </g>
   <g id="text_3">
    <text style="font-family:DejaVu Sans;font-size:6.5px;font-style:normal;font-weight:roman;text-anchor:start;" transform="rotate(-334.660195, 389.725116, 341.406164)" x="389.725116" y="341.406164">cellular response to cytokine stimulus</text>
   </g>
   <g id="text_4">
    <path d="M 241.17301 213.020797 
Q 240.766159 212.704897 240.447479 212.305963 
Q 240.129249 211.90794 239.87847 211.398595 
Q 239.432541 210.49289 239.637418 209.74788 
Q 239.842294 209.00287 240.636836 208.611673 
Q 241.151648 208.358202 241.682532 208.298324 
Q 242.214776 208.238907 242.745809 208.377065 
Q 243.39475 208.54547 243.882701 208.968607 
Q 244.370652 209.391744 244.708463 210.077857 
Q 244.896435 210.459638 245.006916 210.886364 
Q 245.118308 211.312642 245.146418 211.765208 
L 244.184591 212.030471 
Q 244.215036 211.584169 244.150607 211.202692 
Q 244.087538 210.821677 243.922445 210.486366 
Q 243.560409 209.751051 242.843196 209.531356 
Q 242.126895 209.311212 241.357866 209.689848 
Q 240.848521 209.940627 240.698401 210.348495 
Q 240.549641 210.756825 240.79055 211.246124 
Q 240.869059 211.405579 240.968524 211.554716 
Q 241.068901 211.703404 241.194314 211.843162 
L 242.09969 211.5989 
L 241.770402 210.9301 
L 242.574357 210.707473 
L 243.412829 212.410452 
z
M 245.533079 216.344311 
Q 246.034224 216.09757 246.184023 215.741934 
Q 246.335183 215.386761 246.123434 214.956688 
Q 245.843046 214.387206 245.141664 214.252545 
Q 244.44073 214.118796 243.672612 214.496983 
Q 243.182402 214.738341 243.022593 215.09664 
Q 242.862785 215.45494 243.060178 215.855856 
Q 243.221681 216.183877 243.484433 216.370353 
Q 243.748545 216.55729 244.107541 216.603551 
Q 244.451117 216.646083 244.821254 216.579314 
Q 245.19139 216.512544 245.533079 216.344311 
z
M 246.996484 214.724946 
Q 247.41415 215.573247 247.197442 216.321818 
Q 246.980734 217.070389 246.219906 217.444987 
Q 245.702361 217.699804 245.162785 217.769622 
Q 244.624121 217.838991 244.107977 217.717276 
Q 243.472985 217.570305 242.999852 217.174965 
Q 242.528079 216.780088 242.202829 216.119489 
Q 241.786509 215.273921 242.002755 214.52671 
Q 242.219 213.779499 242.981651 213.404003 
Q 243.502841 213.147392 244.041056 213.077112 
Q 244.580183 213.006383 245.099958 213.128574 
Q 245.729525 213.271424 246.199924 213.66811 
Q 246.671234 214.064346 246.996484 214.724946 
z
M 246.21306 222.022699 
L 247.122862 223.870555 
L 246.240673 224.111325 
L 244.720746 221.024276 
L 245.611109 220.78401 
L 247.865196 221.92019 
Q 248.23879 222.104165 248.548316 222.144218 
Q 248.85829 222.185181 249.077882 222.077063 
Q 249.311142 221.962217 249.360198 221.739955 
Q 249.410164 221.517244 249.2684 221.229314 
Q 249.135608 220.959607 248.864806 220.678607 
Q 248.594004 220.397607 248.165761 220.088842 
L 249.158456 219.826494 
Q 249.491263 220.143757 249.743998 220.482331 
Q 249.998092 220.821367 250.177541 221.185836 
Q 250.496958 221.83459 250.399803 222.345435 
Q 250.303097 222.85719 249.819265 223.095408 
Q 249.403771 223.299979 248.949926 223.240418 
Q 248.496082 223.180858 247.533427 222.692582 
z
" style="fill:#ffffff;stroke:#000000;"/>
    <path d="M 241.17301 213.020797 
Q 240.766159 212.704897 240.447479 212.305963 
Q 240.129249 211.90794 239.87847 211.398595 
Q 239.432541 210.49289 239.637418 209.74788 
Q 239.842294 209.00287 240.636836 208.611673 
Q 241.151648 208.358202 241.682532 208.298324 
Q 242.214776 208.238907 242.745809 208.377065 
Q 243.39475 208.54547 243.882701 208.968607 
Q 244.370652 209.391744 244.708463 210.077857 
Q 244.896435 210.459638 245.006916 210.886364 
Q 245.118308 211.312642 245.146418 211.765208 
L 244.184591 212.030471 
Q 244.215036 211.584169 244.150607 211.202692 
Q 244.087538 210.821677 243.922445 210.486366 
Q 243.560409 209.751051 242.843196 209.531356 
Q 242.126895 209.311212 241.357866 209.689848 
Q 240.848521 209.940627 240.698401 210.348495 
Q 240.549641 210.756825 240.79055 211.246124 
Q 240.869059 211.405579 240.968524 211.554716 
Q 241.068901 211.703404 241.194314 211.843162 
L 242.09969 211.5989 
L 241.770402 210.9301 
L 242.574357 210.707473 
L 243.412829 212.410452 
z
M 245.533079 216.344311 
Q 246.034224 216.09757 246.184023 215.741934 
Q 246.335183 215.386761 246.123434 214.956688 
Q 245.843046 214.387206 245.141664 214.252545 
Q 244.44073 214.118796 243.672612 214.496983 
Q 243.182402 214.738341 243.022593 215.09664 
Q 242.862785 215.45494 243.060178 215.855856 
Q 243.221681 216.183877 243.484433 216.370353 
Q 243.748545 216.55729 244.107541 216.603551 
Q 244.451117 216.646083 244.821254 216.579314 
Q 245.19139 216.512544 245.533079 216.344311 
z
M 246.996484 214.724946 
Q 247.41415 215.573247 247.197442 216.321818 
Q 246.980734 217.070389 246.219906 217.444987 
Q 245.702361 217.699804 245.162785 217.769622 
Q 244.624121 217.838991 244.107977 217.717276 
Q 243.472985 217.570305 242.999852 217.174965 
Q 242.528079 216.780088 242.202829 216.119489 
Q 241.786509 215.273921 242.002755 214.52671 
Q 242.219 213.779499 242.981651 213.404003 
Q 243.502841 213.147392 244.041056 213.077112 
Q 244.580183 213.006383 245.099958 213.128574 
Q 245.729525 213.271424 246.199924 213.66811 
Q 246.671234 214.064346 246.996484 214.724946 
z
M 246.21306 222.022699 
L 247.122862 223.870555 
L 246.240673 224.111325 
L 244.720746 221.024276 
L 245.611109 220.78401 
L 247.865196 221.92019 
Q 248.23879 222.104165 248.548316 222.144218 
Q 248.85829 222.185181 249.077882 222.077063 
Q 249.311142 221.962217 249.360198 221.739955 
Q 249.410164 221.517244 249.2684 221.229314 
Q 249.135608 220.959607 248.864806 220.678607 
Q 248.594004 220.397607 248.165761 220.088842 
L 249.158456 219.826494 
Q 249.491263 220.143757 249.743998 220.482331 
Q 249.998092 220.821367 250.177541 221.185836 
Q 250.496958 221.83459 250.399803 222.345435 
Q 250.303097 222.85719 249.819265 223.095408 
Q 249.403771 223.299979 248.949926 223.240418 
Q 248.496082 223.180858 247.533427 222.692582 
z
" style="fill:#ffffff;"/>
    <path d="M 243.17301 215.020797 
Q 242.766159 214.704897 242.447479 214.305963 
Q 242.129249 213.90794 241.87847 213.398595 
Q 241.432541 212.49289 241.637418 211.74788 
Q 241.842294 211.00287 242.636836 210.611673 
Q 243.151648 210.358202 243.682532 210.298324 
Q 244.214776 210.238907 244.745809 210.377065 
Q 245.39475 210.54547 245.882701 210.968607 
Q 246.370652 211.391744 246.708463 212.077857 
Q 246.896435 212.459638 247.006916 212.886364 
Q 247.118308 213.312642 247.146418 213.765208 
L 246.184591 214.030471 
Q 246.215036 213.584169 246.150607 213.202692 
Q 246.087538 212.821677 245.922445 212.486366 
Q 245.560409 211.751051 244.843196 211.531356 
Q 244.126895 211.311212 243.357866 211.689848 
Q 242.848521 211.940627 242.698401 212.348495 
Q 242.549641 212.756825 242.79055 213.246124 
Q 242.869059 213.405579 242.968524 213.554716 
Q 243.068901 213.703404 243.194314 213.843162 
L 244.09969 213.5989 
L 243.770402 212.9301 
L 244.574357 212.707473 
L 245.412829 214.410452 
z
M 247.533079 218.344311 
Q 248.034224 218.09757 248.184023 217.741934 
Q 248.335183 217.386761 248.123434 216.956688 
Q 247.843046 216.387206 247.141664 216.252545 
Q 246.44073 216.118796 245.672612 216.496983 
Q 245.182402 216.738341 245.022593 217.09664 
Q 244.862785 217.45494 245.060178 217.855856 
Q 245.221681 218.183877 245.484433 218.370353 
Q 245.748545 218.55729 246.107541 218.603551 
Q 246.451117 218.646083 246.821254 218.579314 
Q 247.19139 218.512544 247.533079 218.344311 
z
M 248.996484 216.724946 
Q 249.41415 217.573247 249.197442 218.321818 
Q 248.980734 219.070389 248.219906 219.444987 
Q 247.702361 219.699804 247.162785 219.769622 
Q 246.624121 219.838991 246.107977 219.717276 
Q 245.472985 219.570305 244.999852 219.174965 
Q 244.528079 218.780088 244.202829 218.119489 
Q 243.786509 217.273921 244.002755 216.52671 
Q 244.219 215.779499 244.981651 215.404003 
Q 245.502841 215.147392 246.041056 215.077112 
Q 246.580183 215.006383 247.099958 215.128574 
Q 247.729525 215.271424 248.199924 215.66811 
Q 248.671234 216.064346 248.996484 216.724946 
z
M 248.21306 224.022699 
L 249.122862 225.870555 
L 248.240673 226.111325 
L 246.720746 223.024276 
L 247.611109 222.78401 
L 249.865196 223.92019 
Q 250.23879 224.104165 250.548316 224.144218 
Q 250.85829 224.185181 251.077882 224.077063 
Q 251.311142 223.962217 251.360198 223.739955 
Q 251.410164 223.517244 251.2684 223.229314 
Q 251.135608 222.959607 250.864806 222.678607 
Q 250.594004 222.397607 250.165761 222.088842 
L 251.158456 221.826494 
Q 251.491263 222.143757 251.743998 222.482331 
Q 251.998092 222.821367 252.177541 223.185836 
Q 252.496958 223.83459 252.399803 224.345435 
Q 252.303097 224.85719 251.819265 225.095408 
Q 251.403771 225.299979 250.949926 225.240418 
Q 250.496082 225.180858 249.533427 224.692582 
z
" style="fill:#4c4c4c;opacity:0.3;"/>
    <path d="M 241.17301 213.020797 
Q 240.766159 212.704897 240.447479 212.305963 
Q 240.129249 211.90794 239.87847 211.398595 
Q 239.432541 210.49289 239.637418 209.74788 
Q 239.842294 209.00287 240.636836 208.611673 
Q 241.151648 208.358202 241.682532 208.298324 
Q 242.214776 208.238907 242.745809 208.377065 
Q 243.39475 208.54547 243.882701 208.968607 
Q 244.370652 209.391744 244.708463 210.077857 
Q 244.896435 210.459638 245.006916 210.886364 
Q 245.118308 211.312642 245.146418 211.765208 
L 244.184591 212.030471 
Q 244.215036 211.584169 244.150607 211.202692 
Q 244.087538 210.821677 243.922445 210.486366 
Q 243.560409 209.751051 242.843196 209.531356 
Q 242.126895 209.311212 241.357866 209.689848 
Q 240.848521 209.940627 240.698401 210.348495 
Q 240.549641 210.756825 240.79055 211.246124 
Q 240.869059 211.405579 240.968524 211.554716 
Q 241.068901 211.703404 241.194314 211.843162 
L 242.09969 211.5989 
L 241.770402 210.9301 
L 242.574357 210.707473 
L 243.412829 212.410452 
z
M 245.533079 216.344311 
Q 246.034224 216.09757 246.184023 215.741934 
Q 246.335183 215.386761 246.123434 214.956688 
Q 245.843046 214.387206 245.141664 214.252545 
Q 244.44073 214.118796 243.672612 214.496983 
Q 243.182402 214.738341 243.022593 215.09664 
Q 242.862785 215.45494 243.060178 215.855856 
Q 243.221681 216.183877 243.484433 216.370353 
Q 243.748545 216.55729 244.107541 216.603551 
Q 244.451117 216.646083 244.821254 216.579314 
Q 245.19139 216.512544 245.533079 216.344311 
z
M 246.996484 214.724946 
Q 247.41415 215.573247 247.197442 216.321818 
Q 246.980734 217.070389 246.219906 217.444987 
Q 245.702361 217.699804 245.162785 217.769622 
Q 244.624121 217.838991 244.107977 217.717276 
Q 243.472985 217.570305 242.999852 217.174965 
Q 242.528079 216.780088 242.202829 216.119489 
Q 241.786509 215.273921 242.002755 214.52671 
Q 242.219 213.779499 242.981651 213.404003 
Q 243.502841 213.147392 244.041056 213.077112 
Q 244.580183 213.006383 245.099958 213.128574 
Q 245.729525 213.271424 246.199924 213.66811 
Q 246.671234 214.064346 246.996484 214.724946 
z
M 246.21306 222.022699 
L 247.122862 223.870555 
L 246.240673 224.111325 
L 244.720746 221.024276 
L 245.611109 220.78401 
L 247.865196 221.92019 
Q 248.23879 222.104165 248.548316 222.144218 
Q 248.85829 222.185181 249.077882 222.077063 
Q 249.311142 221.962217 249.360198 221.739955 
Q 249.410164 221.517244 249.2684 221.229314 
Q 249.135608 220.959607 248.864806 220.678607 
Q 248.594004 220.397607 248.165761 220.088842 
L 249.158456 219.826494 
Q 249.491263 220.143757 249.743998 220.482331 
Q 249.998092 220.821367 250.177541 221.185836 
Q 250.496958 221.83459 250.399803 222.345435 
Q 250.303097 222.85719 249.819265 223.095408 
Q 249.403771 223.299979 248.949926 223.240418 
Q 248.496082 223.180858 247.533427 222.692582 
z
" style="fill:#ffffff;"/>
   </g>
   <g id="text_5">
    <path d="M 316.448252 357.224625 
Q 316.041401 356.908725 315.722721 356.50979 
Q 315.404491 356.111767 315.153712 355.602422 
Q 314.707783 354.696718 314.912659 353.951708 
Q 315.117536 353.206698 315.912078 352.815501 
Q 316.42689 352.56203 316.957774 352.502151 
Q 317.490018 352.442735 318.021051 352.580893 
Q 318.669992 352.749298 319.157943 353.172435 
Q 319.645894 353.595572 319.983705 354.281684 
Q 320.171677 354.663465 320.282158 355.090192 
Q 320.39355 355.51647 320.42166 355.969035 
L 319.459833 356.234299 
Q 319.490278 355.787997 319.425849 355.40652 
Q 319.36278 355.025505 319.197687 354.690194 
Q 318.835651 353.954878 318.118438 353.735183 
Q 317.402137 353.51504 316.633108 353.893676 
Q 316.123763 354.144454 315.973643 354.552322 
Q 315.824883 354.960653 316.065792 355.449952 
Q 316.144301 355.609407 316.243766 355.758544 
Q 316.344143 355.907232 316.469556 356.04699 
L 317.374932 355.802728 
L 317.045644 355.133928 
L 317.849599 354.9113 
L 318.688071 356.61428 
z
M 320.808321 360.548139 
Q 321.309466 360.301398 321.459265 359.945762 
Q 321.610425 359.590589 321.398676 359.160516 
Q 321.118288 358.591033 320.416906 358.456373 
Q 319.715972 358.322623 318.947854 358.700811 
Q 318.457644 358.942168 318.297835 359.300468 
Q 318.138026 359.658768 318.33542 360.059683 
Q 318.496923 360.387705 318.759675 360.57418 
Q 319.023787 360.761118 319.382783 360.807379 
Q 319.726359 360.849911 320.096495 360.783141 
Q 320.466632 360.716372 320.808321 360.548139 
z
M 322.271726 358.928774 
Q 322.689392 359.777074 322.472684 360.525646 
Q 322.255976 361.274217 321.495148 361.648815 
Q 320.977602 361.903631 320.438027 361.973449 
Q 319.899363 362.042819 319.383219 361.921104 
Q 318.748226 361.774132 318.275094 361.378793 
Q 317.803321 360.983916 317.478071 360.323316 
Q 317.061751 359.477749 317.277996 358.730538 
Q 317.494242 357.983326 318.256892 357.607831 
Q 318.778083 357.35122 319.316298 357.28094 
Q 319.855425 357.21021 320.3752 357.332402 
Q 321.004767 357.475252 321.475166 357.871937 
Q 321.946476 358.268174 322.271726 358.928774 
z
M 320.928582 365.211568 
L 321.405017 366.179232 
L 324.415554 365.359228 
L 323.701356 364.425988 
L 324.519385 364.204355 
L 325.230442 365.131217 
L 325.743216 366.172686 
L 321.916893 367.218879 
L 322.390637 368.181076 
L 321.562122 368.409004 
L 320.096928 365.433117 
z
" style="fill:#ffffff;stroke:#000000;"/>
    <path d="M 316.448252 357.224625 
Q 316.041401 356.908725 315.722721 356.50979 
Q 315.404491 356.111767 315.153712 355.602422 
Q 314.707783 354.696718 314.912659 353.951708 
Q 315.117536 353.206698 315.912078 352.815501 
Q 316.42689 352.56203 316.957774 352.502151 
Q 317.490018 352.442735 318.021051 352.580893 
Q 318.669992 352.749298 319.157943 353.172435 
Q 319.645894 353.595572 319.983705 354.281684 
Q 320.171677 354.663465 320.282158 355.090192 
Q 320.39355 355.51647 320.42166 355.969035 
L 319.459833 356.234299 
Q 319.490278 355.787997 319.425849 355.40652 
Q 319.36278 355.025505 319.197687 354.690194 
Q 318.835651 353.954878 318.118438 353.735183 
Q 317.402137 353.51504 316.633108 353.893676 
Q 316.123763 354.144454 315.973643 354.552322 
Q 315.824883 354.960653 316.065792 355.449952 
Q 316.144301 355.609407 316.243766 355.758544 
Q 316.344143 355.907232 316.469556 356.04699 
L 317.374932 355.802728 
L 317.045644 355.133928 
L 317.849599 354.9113 
L 318.688071 356.61428 
z
M 320.808321 360.548139 
Q 321.309466 360.301398 321.459265 359.945762 
Q 321.610425 359.590589 321.398676 359.160516 
Q 321.118288 358.591033 320.416906 358.456373 
Q 319.715972 358.322623 318.947854 358.700811 
Q 318.457644 358.942168 318.297835 359.300468 
Q 318.138026 359.658768 318.33542 360.059683 
Q 318.496923 360.387705 318.759675 360.57418 
Q 319.023787 360.761118 319.382783 360.807379 
Q 319.726359 360.849911 320.096495 360.783141 
Q 320.466632 360.716372 320.808321 360.548139 
z
M 322.271726 358.928774 
Q 322.689392 359.777074 322.472684 360.525646 
Q 322.255976 361.274217 321.495148 361.648815 
Q 320.977602 361.903631 320.438027 361.973449 
Q 319.899363 362.042819 319.383219 361.921104 
Q 318.748226 361.774132 318.275094 361.378793 
Q 317.803321 360.983916 317.478071 360.323316 
Q 317.061751 359.477749 317.277996 358.730538 
Q 317.494242 357.983326 318.256892 357.607831 
Q 318.778083 357.35122 319.316298 357.28094 
Q 319.855425 357.21021 320.3752 357.332402 
Q 321.004767 357.475252 321.475166 357.871937 
Q 321.946476 358.268174 322.271726 358.928774 
z
M 320.928582 365.211568 
L 321.405017 366.179232 
L 324.415554 365.359228 
L 323.701356 364.425988 
L 324.519385 364.204355 
L 325.230442 365.131217 
L 325.743216 366.172686 
L 321.916893 367.218879 
L 322.390637 368.181076 
L 321.562122 368.409004 
L 320.096928 365.433117 
z
" style="fill:#ffffff;"/>
    <path d="M 318.448252 359.224625 
Q 318.041401 358.908725 317.722721 358.50979 
Q 317.404491 358.111767 317.153712 357.602422 
Q 316.707783 356.696718 316.912659 355.951708 
Q 317.117536 355.206698 317.912078 354.815501 
Q 318.42689 354.56203 318.957774 354.502151 
Q 319.490018 354.442735 320.021051 354.580893 
Q 320.669992 354.749298 321.157943 355.172435 
Q 321.645894 355.595572 321.983705 356.281684 
Q 322.171677 356.663465 322.282158 357.090192 
Q 322.39355 357.51647 322.42166 357.969035 
L 321.459833 358.234299 
Q 321.490278 357.787997 321.425849 357.40652 
Q 321.36278 357.025505 321.197687 356.690194 
Q 320.835651 355.954878 320.118438 355.735183 
Q 319.402137 355.51504 318.633108 355.893676 
Q 318.123763 356.144454 317.973643 356.552322 
Q 317.824883 356.960653 318.065792 357.449952 
Q 318.144301 357.609407 318.243766 357.758544 
Q 318.344143 357.907232 318.469556 358.04699 
L 319.374932 357.802728 
L 319.045644 357.133928 
L 319.849599 356.9113 
L 320.688071 358.61428 
z
M 322.808321 362.548139 
Q 323.309466 362.301398 323.459265 361.945762 
Q 323.610425 361.590589 323.398676 361.160516 
Q 323.118288 360.591033 322.416906 360.456373 
Q 321.715972 360.322623 320.947854 360.700811 
Q 320.457644 360.942168 320.297835 361.300468 
Q 320.138026 361.658768 320.33542 362.059683 
Q 320.496923 362.387705 320.759675 362.57418 
Q 321.023787 362.761118 321.382783 362.807379 
Q 321.726359 362.849911 322.096495 362.783141 
Q 322.466632 362.716372 322.808321 362.548139 
z
M 324.271726 360.928774 
Q 324.689392 361.777074 324.472684 362.525646 
Q 324.255976 363.274217 323.495148 363.648815 
Q 322.977602 363.903631 322.438027 363.973449 
Q 321.899363 364.042819 321.383219 363.921104 
Q 320.748226 363.774132 320.275094 363.378793 
Q 319.803321 362.983916 319.478071 362.323316 
Q 319.061751 361.477749 319.277996 360.730538 
Q 319.494242 359.983326 320.256892 359.607831 
Q 320.778083 359.35122 321.316298 359.28094 
Q 321.855425 359.21021 322.3752 359.332402 
Q 323.004767 359.475252 323.475166 359.871937 
Q 323.946476 360.268174 324.271726 360.928774 
z
M 322.928582 367.211568 
L 323.405017 368.179232 
L 326.415554 367.359228 
L 325.701356 366.425988 
L 326.519385 366.204355 
L 327.230442 367.131217 
L 327.743216 368.172686 
L 323.916893 369.218879 
L 324.390637 370.181076 
L 323.562122 370.409004 
L 322.096928 367.433117 
z
" style="fill:#4c4c4c;opacity:0.3;"/>
    <path d="M 316.448252 357.224625 
Q 316.041401 356.908725 315.722721 356.50979 
Q 315.404491 356.111767 315.153712 355.602422 
Q 314.707783 354.696718 314.912659 353.951708 
Q 315.117536 353.206698 315.912078 352.815501 
Q 316.42689 352.56203 316.957774 352.502151 
Q 317.490018 352.442735 318.021051 352.580893 
Q 318.669992 352.749298 319.157943 353.172435 
Q 319.645894 353.595572 319.983705 354.281684 
Q 320.171677 354.663465 320.282158 355.090192 
Q 320.39355 355.51647 320.42166 355.969035 
L 319.459833 356.234299 
Q 319.490278 355.787997 319.425849 355.40652 
Q 319.36278 355.025505 319.197687 354.690194 
Q 318.835651 353.954878 318.118438 353.735183 
Q 317.402137 353.51504 316.633108 353.893676 
Q 316.123763 354.144454 315.973643 354.552322 
Q 315.824883 354.960653 316.065792 355.449952 
Q 316.144301 355.609407 316.243766 355.758544 
Q 316.344143 355.907232 316.469556 356.04699 
L 317.374932 355.802728 
L 317.045644 355.133928 
L 317.849599 354.9113 
L 318.688071 356.61428 
z
M 320.808321 360.548139 
Q 321.309466 360.301398 321.459265 359.945762 
Q 321.610425 359.590589 321.398676 359.160516 
Q 321.118288 358.591033 320.416906 358.456373 
Q 319.715972 358.322623 318.947854 358.700811 
Q 318.457644 358.942168 318.297835 359.300468 
Q 318.138026 359.658768 318.33542 360.059683 
Q 318.496923 360.387705 318.759675 360.57418 
Q 319.023787 360.761118 319.382783 360.807379 
Q 319.726359 360.849911 320.096495 360.783141 
Q 320.466632 360.716372 320.808321 360.548139 
z
M 322.271726 358.928774 
Q 322.689392 359.777074 322.472684 360.525646 
Q 322.255976 361.274217 321.495148 361.648815 
Q 320.977602 361.903631 320.438027 361.973449 
Q 319.899363 362.042819 319.383219 361.921104 
Q 318.748226 361.774132 318.275094 361.378793 
Q 317.803321 360.983916 317.478071 360.323316 
Q 317.061751 359.477749 317.277996 358.730538 
Q 317.494242 357.983326 318.256892 357.607831 
Q 318.778083 357.35122 319.316298 357.28094 
Q 319.855425 357.21021 320.3752 357.332402 
Q 321.004767 357.475252 321.475166 357.871937 
Q 321.946476 358.268174 322.271726 358.928774 
z
M 320.928582 365.211568 
L 321.405017 366.179232 
L 324.415554 365.359228 
L 323.701356 364.425988 
L 324.519385 364.204355 
L 325.230442 365.131217 
L 325.743216 366.172686 
L 321.916893 367.218879 
L 322.390637 368.181076 
L 321.562122 368.409004 
L 320.096928 365.433117 
z
" style="fill:#ffffff;"/>
   </g>
   <g id="text_6">
    <text style="font-family:DejaVu Sans;font-size:12px;font-style:normal;font-weight:normal;text-anchor:middle;" transform="rotate(-0, 282.045437, 16.318125)" x="282.045437" y="16.318125">CirGO Visualisation Plot</text>
   </g>
   <g id="legend_1">
    <g id="text_7">
     <text style="font-family:DejaVu Sans;font-size:6.5px;font-style:normal;font-weight:normal;text-anchor:start;" transform="rotate(-0, 634.351219, 38.291109)" x="634.351219" y="38.291109">Name &amp; Proportion of Biological process (inner ring)</text>
    </g>
    <g id="patch_8">
     <path d="M 627.735437 47.831891 
L 640.735437 47.831891 
L 640.735437 43.281891 
L 627.735437 43.281891 
z
" style="fill:#943105;stroke:#ffffff;stroke-linejoin:miter;stroke-width:0.7;"/>
    </g>
    <g id="text_8">
     <text style="font-family:DejaVu Sans;font-size:6.5px;font-style:normal;font-weight:normal;text-anchor:start;" transform="rotate(-0, 645.935437, 47.831891)" x="645.935437" y="47.831891">GO1 null, 85.4%</text>
    </g>
    <g id="patch_9">
     <path d="M 627.735437 57.372672 
L 640.735437 57.372672 
L 640.735437 52.822672 
L 627.735437 52.822672 
z
" style="fill:#0cc0aa;stroke:#ffffff;stroke-linejoin:miter;stroke-width:0.7;"/>
    </g>
    <g id="text_9">
     <text style="font-family:DejaVu Sans;font-size:6.5px;font-style:normal;font-weight:normal;text-anchor:start;" transform="rotate(-0, 645.935437, 57.372672)" x="645.935437" y="57.372672">GO2 cellular response to cytokine stimulus, 14.6%</text>
    </g>
   </g>
  </g>
 </g>
</svg>
