<?xml version="1.0" encoding="utf-8" standalone="no"?>
<!DOCTYPE svg PUBLIC "-//W3C//DTD SVG 1.1//EN"
  "http://www.w3.org/Graphics/SVG/1.1/DTD/svg11.dtd">
<!-- Created with matplotlib (https://matplotlib.org/) -->
<svg height="595.046993pt" version="1.1" viewBox="0 0 996.595068 595.046993" width="996.595068pt" xmlns="http://www.w3.org/2000/svg" xmlns:xlink="http://www.w3.org/1999/xlink">
 <defs>
  <style type="text/css">
*{stroke-linecap:butt;stroke-linejoin:round;}
  </style>
 </defs>
 <g id="figure_1">
  <g id="patch_1">
   <path d="M 0 595.046993 
L 996.595068 595.046993 
L 996.595068 0 
L 0 0 
z
" style="fill:#ffffff;"/>
  </g>
  <g id="axes_1">
   <g id="patch_2">
    <path d="M 448.599443 287.852541 
C 445.393469 287.852541 442.188914 287.987452 438.994284 288.256916 
C 435.799653 288.52638 432.617777 288.930158 429.4571 289.467178 
L 448.599443 402.130941 
L 448.599443 287.852541 
z
" style="fill:#42cfbe;stroke:#ffffff;stroke-linejoin:miter;stroke-width:0.7;"/>
   </g>
   <g id="patch_3">
    <path d="M 429.4571 289.467178 
C 421.021039 290.900523 412.772594 293.276859 404.866992 296.551467 
C 396.961389 299.826075 389.448535 303.978283 382.469811 308.929951 
L 448.599443 402.130941 
L 429.4571 289.467178 
z
" style="fill:#0cc0aa;stroke:#ffffff;stroke-linejoin:miter;stroke-width:0.7;"/>
   </g>
   <g id="patch_4">
    <path d="M 382.469811 308.929951 
C 382.469811 308.929951 382.469811 308.929951 382.469811 308.929951 
L 448.599443 402.130941 
L 382.469811 308.929951 
z
" style="stroke:#ffffff;stroke-linejoin:miter;stroke-width:0.7;"/>
   </g>
   <g id="patch_5">
    <path d="M 382.469811 308.929951 
C 382.469811 308.929951 382.469811 308.929951 382.469811 308.929951 
L 448.599443 402.130941 
L 382.469811 308.929951 
z
" style="stroke:#ffffff;stroke-linejoin:miter;stroke-width:0.7;"/>
   </g>
   <g id="patch_6">
    <path d="M 382.469811 308.929951 
C 375.491088 313.88162 369.090549 319.601491 363.388647 325.981923 
C 357.686745 332.362355 352.719472 339.363071 348.580309 346.852325 
L 448.599443 402.130941 
L 382.469811 308.929951 
z
" style="fill:#d4a28c;stroke:#ffffff;stroke-linejoin:miter;stroke-width:0.7;"/>
   </g>
   <g id="patch_7">
    <path d="M 348.580309 346.852325 
C 344.181854 354.810729 340.74894 363.265736 338.354464 372.037799 
C 335.959988 380.809861 334.621021 389.836445 334.365997 398.925865 
L 448.599443 402.130941 
L 348.580309 346.852325 
z
" style="fill:#be7c5f;stroke:#ffffff;stroke-linejoin:miter;stroke-width:0.7;"/>
   </g>
   <g id="patch_8">
    <path d="M 334.365997 398.925865 
C 334.110973 408.015286 334.94171 417.102745 336.840566 425.995267 
C 338.739422 434.887789 341.692861 443.521979 345.638165 451.714486 
L 448.599443 402.130941 
L 334.365997 398.925865 
z
" style="fill:#a95732;stroke:#ffffff;stroke-linejoin:miter;stroke-width:0.7;"/>
   </g>
   <g id="patch_9">
    <path d="M 345.638165 451.714486 
C 352.38352 465.721358 361.916718 478.205576 373.652955 488.40131 
C 385.389193 498.597045 399.083479 506.291463 413.895755 511.012559 
L 448.599443 402.130941 
L 345.638165 451.714486 
z
" style="fill:#943105;stroke:#ffffff;stroke-linejoin:miter;stroke-width:0.7;"/>
   </g>
   <g id="patch_10">
    <path d="M 413.895755 511.012559 
C 426.653768 515.078903 440.027761 516.871435 453.406281 516.308202 
C 466.784802 515.74497 479.960808 512.834688 492.331897 507.710414 
L 448.599443 402.130941 
L 413.895755 511.012559 
z
" style="fill:#b9d47a;stroke:#ffffff;stroke-linejoin:miter;stroke-width:0.7;"/>
   </g>
   <g id="patch_11">
    <path d="M 492.331897 507.710414 
C 508.192529 501.140725 522.370787 491.080713 533.810241 478.279957 
C 545.249695 465.479201 553.658988 450.263728 558.41154 433.767252 
L 448.599443 402.130941 
L 492.331897 507.710414 
z
" style="fill:#adcc63;stroke:#ffffff;stroke-linejoin:miter;stroke-width:0.7;"/>
   </g>
   <g id="patch_12">
    <path d="M 558.41154 433.767252 
C 563.313896 416.750792 564.19451 398.825453 560.983662 381.410417 
C 557.772813 363.995381 550.557536 347.562699 539.909076 333.413377 
C 529.260616 319.264054 515.46761 307.781622 499.622076 299.875165 
C 483.776541 291.968708 466.307986 287.852539 448.599428 287.852541 
L 448.599443 402.130941 
L 558.41154 433.767252 
z
" style="fill:#a1c54d;stroke:#ffffff;stroke-linejoin:miter;stroke-width:0.7;"/>
   </g>
   <g id="patch_13">
    <path d="M 448.599428 287.852541 
C 448.599428 287.852541 448.599428 287.852541 448.599428 287.852541 
L 448.599443 402.130941 
L 448.599428 287.852541 
z
" style="stroke:#ffffff;stroke-linejoin:miter;stroke-width:0.7;"/>
   </g>
   <g id="patch_14">
    <path d="M 448.599443 302.137341 
C 438.294771 302.137341 428.051748 303.730237 418.233713 306.859526 
C 408.415677 309.988816 399.140106 314.617055 390.736018 320.580073 
L 448.599443 402.130941 
L 448.599443 302.137341 
z
" style="fill:#0cc0aa;stroke:#ffffff;stroke-linejoin:miter;stroke-width:0.7;"/>
   </g>
   <g id="patch_15">
    <path d="M 390.736018 320.580073 
C 375.581052 331.333094 363.719349 346.100681 356.488012 363.218164 
C 349.256675 380.335647 346.938029 399.134729 349.793442 417.496294 
C 352.648854 435.85786 360.566846 453.065039 372.654865 467.178163 
C 384.742884 481.291287 400.528992 491.759353 418.233708 497.402354 
L 448.599443 402.130941 
L 390.736018 320.580073 
z
" style="fill:#943105;stroke:#ffffff;stroke-linejoin:miter;stroke-width:0.7;"/>
   </g>
   <g id="patch_16">
    <path d="M 418.233708 497.402354 
C 431.982385 501.784452 446.518105 503.138946 460.839723 501.372543 
C 475.16134 499.606141 488.932328 494.76035 501.204212 487.168923 
C 513.476096 479.577496 523.960514 469.418815 531.935352 457.392558 
C 539.91019 445.366301 545.188058 431.755059 547.405443 417.496304 
C 549.622828 403.237548 548.727627 388.666329 544.781496 374.786237 
C 540.835365 360.906146 533.931029 348.043333 524.544025 337.083723 
C 515.15702 326.124113 503.50792 317.325233 490.399056 311.293105 
C 477.290191 305.260977 463.029591 302.137342 448.599452 302.137341 
L 448.599443 402.130941 
L 418.233708 497.402354 
z
" style="fill:#a1c54d;stroke:#ffffff;stroke-linejoin:miter;stroke-width:0.7;"/>
   </g>
   <g id="matplotlib.axis_1"/>
   <g id="matplotlib.axis_2"/>
   <g id="text_1">
    <text style="font-family:DejaVu Sans;font-size:6.5px;font-style:normal;font-weight:roman;text-anchor:end;" transform="rotate(-274.821429, 436.726778, 282.713967)" x="436.726778" y="282.713967">antigen processing and presentation of endogenous peptide antigen via MHC class I</text>
   </g>
   <g id="text_2">
    <text style="font-family:DejaVu Sans;font-size:6.5px;font-style:normal;font-weight:roman;text-anchor:end;" transform="rotate(-292.500001, 401.023304, 291.958872)" x="401.023304" y="291.958872">T cell mediated immunity</text>
   </g>
   <g id="text_3">
    <text style="font-family:DejaVu Sans;font-size:6.5px;font-style:normal;font-weight:roman;text-anchor:end;" transform="rotate(-318.214288, 357.932952, 323.511851)" x="357.932952" y="323.511851">regulation of adaptive immune response based on somatic recombination of immune receptors built from immunoglobulin superfamily domains</text>
   </g>
   <g id="text_4">
    <text style="font-family:DejaVu Sans;font-size:6.5px;font-style:normal;font-weight:roman;text-anchor:end;" transform="rotate(-344.732145, 332.369904, 372.263431)" x="332.369904" y="372.263431">positive regulation of leukocyte differentiation</text>
   </g>
   <g id="text_5">
    <text style="font-family:DejaVu Sans;font-size:6.5px;font-style:normal;font-weight:roman;text-anchor:end;" transform="rotate(-12.053574, 331.627171, 428.942533)" x="331.627171" y="428.942533">positive regulation of leukocyte chemotaxis</text>
   </g>
   <g id="text_6">
    <text style="font-family:DejaVu Sans;font-size:6.5px;font-style:normal;font-weight:roman;text-anchor:end;" transform="rotate(-49.01786, 371.25964, 493.89111)" x="371.25964" y="493.89111">regulation of lymphocyte proliferation</text>
   </g>
   <g id="text_7">
    <text style="font-family:DejaVu Sans;font-size:6.5px;font-style:normal;font-weight:roman;text-anchor:start;" transform="rotate(-272.410716, 451.854617, 522.092509)" x="451.854617" y="522.092509">T cell proliferation</text>
   </g>
   <g id="text_8">
    <text style="font-family:DejaVu Sans;font-size:6.5px;font-style:normal;font-weight:roman;text-anchor:start;" transform="rotate(-318.214289, 536.875626, 483.424787)" x="536.875626" y="483.424787">regulation of leukocyte cell-cell adhesion</text>
   </g>
   <g id="text_9">
    <text style="font-family:DejaVu Sans;font-size:6.5px;font-style:normal;font-weight:roman;text-anchor:start;" transform="rotate(-36.964292, 545.553076, 331.410599)" x="545.553076" y="331.410599">cellular response to cytokine stimulus</text>
   </g>
   <g id="text_10">
    <path d="M 418.959053 322.328327 
Q 418.603591 321.955543 418.347649 321.51373 
Q 418.092015 321.072886 417.919607 320.531962 
Q 417.613036 319.570106 417.926213 318.863753 
Q 418.239391 318.157401 419.083192 317.888457 
Q 419.629921 317.714199 420.163813 317.733774 
Q 420.698981 317.754008 421.203628 317.969448 
Q 421.820389 318.2323 422.240136 318.72317 
Q 422.659884 319.21404 422.892126 319.942689 
Q 423.021354 320.34814 423.067279 320.786538 
Q 423.114172 321.224627 423.074804 321.676352 
L 422.08426 321.795929 
Q 422.180605 321.359089 422.173506 320.972274 
Q 422.167683 320.586118 422.054184 320.230019 
Q 421.805288 319.449115 421.128624 319.125409 
Q 420.452928 318.801394 419.636221 319.061702 
Q 419.095298 319.23411 418.886307 319.615181 
Q 418.678592 319.996912 418.844215 320.516546 
Q 418.898189 320.685887 418.974419 320.848134 
Q 419.051616 321.010073 419.154898 321.166896 
L 420.086499 321.05971 
L 419.860118 320.349446 
L 420.68821 320.248602 
L 421.26465 322.057162 
z
M 422.77758 326.26213 
Q 423.309794 326.092498 423.510716 325.763033 
Q 423.712914 325.434227 423.567339 324.977491 
Q 423.374576 324.372702 422.700947 324.135438 
Q 422.027626 323.899141 421.211886 324.15914 
Q 420.691284 324.325071 420.480069 324.655685 
Q 420.268853 324.986299 420.404559 325.41207 
Q 420.51559 325.760429 420.747757 325.983835 
Q 420.9812 326.2079 421.329355 326.306928 
Q 421.662813 326.399981 422.03876 326.388884 
Q 422.414707 326.377788 422.77758 326.26213 
z
M 424.465115 324.877888 
Q 424.752255 325.778781 424.426849 326.4869 
Q 424.101443 327.195018 423.293445 327.45255 
Q 422.743813 327.627734 422.199851 327.616698 
Q 421.656857 327.605354 421.164493 327.408384 
Q 420.558346 327.168799 420.149127 326.707618 
Q 419.741184 326.247096 419.517578 325.545541 
Q 419.231363 324.647551 419.55611 323.940708 
Q 419.880857 323.233866 420.69079 322.975717 
Q 421.244293 322.7993 421.786979 322.809676 
Q 422.330632 322.819744 422.826516 323.017724 
Q 423.427909 323.252429 423.834225 323.714535 
Q 424.241509 324.176333 424.465115 324.877888 
z
M 424.630939 332.869607 
Q 424.660463 333.236482 424.48221 333.503292 
Q 424.304924 333.769793 423.956565 333.880825 
Q 423.206627 334.119852 422.582776 333.664188 
Q 421.959892 333.208217 421.628339 332.16798 
Q 421.502811 331.774141 421.445745 331.401121 
Q 421.388679 331.0281 421.40069 330.677833 
L 422.35358 330.563862 
Q 422.281592 330.883144 422.296633 331.227987 
Q 422.311982 331.573798 422.413144 331.891191 
Q 422.575991 332.402117 422.862273 332.638121 
Q 423.149832 332.874785 423.473031 332.771773 
Q 423.743009 332.685723 423.805343 332.416419 
Q 423.867677 332.147116 423.722102 331.690379 
L 423.574677 331.227837 
L 424.371804 331.136862 
L 424.527865 331.626499 
Q 424.6793 332.101621 424.939753 332.323474 
Q 425.200205 332.545326 425.493407 332.451874 
Q 425.72371 332.37847 425.783292 332.147352 
Q 425.843182 331.917203 425.726599 331.551426 
Q 425.644559 331.294028 425.481254 331.012431 
Q 425.318258 330.731801 425.087248 330.445135 
L 425.992807 330.339853 
Q 426.20338 330.666078 426.362178 330.99708 
Q 426.520977 331.328082 426.628924 331.666764 
Q 426.872577 332.431217 426.740834 332.897462 
Q 426.610367 333.364366 426.10815 333.524436 
Q 425.658187 333.667852 425.271811 333.495729 
Q 424.885744 333.324574 424.630939 332.869607 
z
" style="fill:#ffffff;stroke:#000000;"/>
    <path d="M 418.959053 322.328327 
Q 418.603591 321.955543 418.347649 321.51373 
Q 418.092015 321.072886 417.919607 320.531962 
Q 417.613036 319.570106 417.926213 318.863753 
Q 418.239391 318.157401 419.083192 317.888457 
Q 419.629921 317.714199 420.163813 317.733774 
Q 420.698981 317.754008 421.203628 317.969448 
Q 421.820389 318.2323 422.240136 318.72317 
Q 422.659884 319.21404 422.892126 319.942689 
Q 423.021354 320.34814 423.067279 320.786538 
Q 423.114172 321.224627 423.074804 321.676352 
L 422.08426 321.795929 
Q 422.180605 321.359089 422.173506 320.972274 
Q 422.167683 320.586118 422.054184 320.230019 
Q 421.805288 319.449115 421.128624 319.125409 
Q 420.452928 318.801394 419.636221 319.061702 
Q 419.095298 319.23411 418.886307 319.615181 
Q 418.678592 319.996912 418.844215 320.516546 
Q 418.898189 320.685887 418.974419 320.848134 
Q 419.051616 321.010073 419.154898 321.166896 
L 420.086499 321.05971 
L 419.860118 320.349446 
L 420.68821 320.248602 
L 421.26465 322.057162 
z
M 422.77758 326.26213 
Q 423.309794 326.092498 423.510716 325.763033 
Q 423.712914 325.434227 423.567339 324.977491 
Q 423.374576 324.372702 422.700947 324.135438 
Q 422.027626 323.899141 421.211886 324.15914 
Q 420.691284 324.325071 420.480069 324.655685 
Q 420.268853 324.986299 420.404559 325.41207 
Q 420.51559 325.760429 420.747757 325.983835 
Q 420.9812 326.2079 421.329355 326.306928 
Q 421.662813 326.399981 422.03876 326.388884 
Q 422.414707 326.377788 422.77758 326.26213 
z
M 424.465115 324.877888 
Q 424.752255 325.778781 424.426849 326.4869 
Q 424.101443 327.195018 423.293445 327.45255 
Q 422.743813 327.627734 422.199851 327.616698 
Q 421.656857 327.605354 421.164493 327.408384 
Q 420.558346 327.168799 420.149127 326.707618 
Q 419.741184 326.247096 419.517578 325.545541 
Q 419.231363 324.647551 419.55611 323.940708 
Q 419.880857 323.233866 420.69079 322.975717 
Q 421.244293 322.7993 421.786979 322.809676 
Q 422.330632 322.819744 422.826516 323.017724 
Q 423.427909 323.252429 423.834225 323.714535 
Q 424.241509 324.176333 424.465115 324.877888 
z
M 424.630939 332.869607 
Q 424.660463 333.236482 424.48221 333.503292 
Q 424.304924 333.769793 423.956565 333.880825 
Q 423.206627 334.119852 422.582776 333.664188 
Q 421.959892 333.208217 421.628339 332.16798 
Q 421.502811 331.774141 421.445745 331.401121 
Q 421.388679 331.0281 421.40069 330.677833 
L 422.35358 330.563862 
Q 422.281592 330.883144 422.296633 331.227987 
Q 422.311982 331.573798 422.413144 331.891191 
Q 422.575991 332.402117 422.862273 332.638121 
Q 423.149832 332.874785 423.473031 332.771773 
Q 423.743009 332.685723 423.805343 332.416419 
Q 423.867677 332.147116 423.722102 331.690379 
L 423.574677 331.227837 
L 424.371804 331.136862 
L 424.527865 331.626499 
Q 424.6793 332.101621 424.939753 332.323474 
Q 425.200205 332.545326 425.493407 332.451874 
Q 425.72371 332.37847 425.783292 332.147352 
Q 425.843182 331.917203 425.726599 331.551426 
Q 425.644559 331.294028 425.481254 331.012431 
Q 425.318258 330.731801 425.087248 330.445135 
L 425.992807 330.339853 
Q 426.20338 330.666078 426.362178 330.99708 
Q 426.520977 331.328082 426.628924 331.666764 
Q 426.872577 332.431217 426.740834 332.897462 
Q 426.610367 333.364366 426.10815 333.524436 
Q 425.658187 333.667852 425.271811 333.495729 
Q 424.885744 333.324574 424.630939 332.869607 
z
" style="fill:#ffffff;"/>
    <path d="M 420.959053 324.328327 
Q 420.603591 323.955543 420.347649 323.51373 
Q 420.092015 323.072886 419.919607 322.531962 
Q 419.613036 321.570106 419.926213 320.863753 
Q 420.239391 320.157401 421.083192 319.888457 
Q 421.629921 319.714199 422.163813 319.733774 
Q 422.698981 319.754008 423.203628 319.969448 
Q 423.820389 320.2323 424.240136 320.72317 
Q 424.659884 321.21404 424.892126 321.942689 
Q 425.021354 322.34814 425.067279 322.786538 
Q 425.114172 323.224627 425.074804 323.676352 
L 424.08426 323.795929 
Q 424.180605 323.359089 424.173506 322.972274 
Q 424.167683 322.586118 424.054184 322.230019 
Q 423.805288 321.449115 423.128624 321.125409 
Q 422.452928 320.801394 421.636221 321.061702 
Q 421.095298 321.23411 420.886307 321.615181 
Q 420.678592 321.996912 420.844215 322.516546 
Q 420.898189 322.685887 420.974419 322.848134 
Q 421.051616 323.010073 421.154898 323.166896 
L 422.086499 323.05971 
L 421.860118 322.349446 
L 422.68821 322.248602 
L 423.26465 324.057162 
z
M 424.77758 328.26213 
Q 425.309794 328.092498 425.510716 327.763033 
Q 425.712914 327.434227 425.567339 326.977491 
Q 425.374576 326.372702 424.700947 326.135438 
Q 424.027626 325.899141 423.211886 326.15914 
Q 422.691284 326.325071 422.480069 326.655685 
Q 422.268853 326.986299 422.404559 327.41207 
Q 422.51559 327.760429 422.747757 327.983835 
Q 422.9812 328.2079 423.329355 328.306928 
Q 423.662813 328.399981 424.03876 328.388884 
Q 424.414707 328.377788 424.77758 328.26213 
z
M 426.465115 326.877888 
Q 426.752255 327.778781 426.426849 328.4869 
Q 426.101443 329.195018 425.293445 329.45255 
Q 424.743813 329.627734 424.199851 329.616698 
Q 423.656857 329.605354 423.164493 329.408384 
Q 422.558346 329.168799 422.149127 328.707618 
Q 421.741184 328.247096 421.517578 327.545541 
Q 421.231363 326.647551 421.55611 325.940708 
Q 421.880857 325.233866 422.69079 324.975717 
Q 423.244293 324.7993 423.786979 324.809676 
Q 424.330632 324.819744 424.826516 325.017724 
Q 425.427909 325.252429 425.834225 325.714535 
Q 426.241509 326.176333 426.465115 326.877888 
z
M 426.630939 334.869607 
Q 426.660463 335.236482 426.48221 335.503292 
Q 426.304924 335.769793 425.956565 335.880825 
Q 425.206627 336.119852 424.582776 335.664188 
Q 423.959892 335.208217 423.628339 334.16798 
Q 423.502811 333.774141 423.445745 333.401121 
Q 423.388679 333.0281 423.40069 332.677833 
L 424.35358 332.563862 
Q 424.281592 332.883144 424.296633 333.227987 
Q 424.311982 333.573798 424.413144 333.891191 
Q 424.575991 334.402117 424.862273 334.638121 
Q 425.149832 334.874785 425.473031 334.771773 
Q 425.743009 334.685723 425.805343 334.416419 
Q 425.867677 334.147116 425.722102 333.690379 
L 425.574677 333.227837 
L 426.371804 333.136862 
L 426.527865 333.626499 
Q 426.6793 334.101621 426.939753 334.323474 
Q 427.200205 334.545326 427.493407 334.451874 
Q 427.72371 334.37847 427.783292 334.147352 
Q 427.843182 333.917203 427.726599 333.551426 
Q 427.644559 333.294028 427.481254 333.012431 
Q 427.318258 332.731801 427.087248 332.445135 
L 427.992807 332.339853 
Q 428.20338 332.666078 428.362178 332.99708 
Q 428.520977 333.328082 428.628924 333.666764 
Q 428.872577 334.431217 428.740834 334.897462 
Q 428.610367 335.364366 428.10815 335.524436 
Q 427.658187 335.667852 427.271811 335.495729 
Q 426.885744 335.324574 426.630939 334.869607 
z
" style="fill:#4c4c4c;opacity:0.3;"/>
    <path d="M 418.959053 322.328327 
Q 418.603591 321.955543 418.347649 321.51373 
Q 418.092015 321.072886 417.919607 320.531962 
Q 417.613036 319.570106 417.926213 318.863753 
Q 418.239391 318.157401 419.083192 317.888457 
Q 419.629921 317.714199 420.163813 317.733774 
Q 420.698981 317.754008 421.203628 317.969448 
Q 421.820389 318.2323 422.240136 318.72317 
Q 422.659884 319.21404 422.892126 319.942689 
Q 423.021354 320.34814 423.067279 320.786538 
Q 423.114172 321.224627 423.074804 321.676352 
L 422.08426 321.795929 
Q 422.180605 321.359089 422.173506 320.972274 
Q 422.167683 320.586118 422.054184 320.230019 
Q 421.805288 319.449115 421.128624 319.125409 
Q 420.452928 318.801394 419.636221 319.061702 
Q 419.095298 319.23411 418.886307 319.615181 
Q 418.678592 319.996912 418.844215 320.516546 
Q 418.898189 320.685887 418.974419 320.848134 
Q 419.051616 321.010073 419.154898 321.166896 
L 420.086499 321.05971 
L 419.860118 320.349446 
L 420.68821 320.248602 
L 421.26465 322.057162 
z
M 422.77758 326.26213 
Q 423.309794 326.092498 423.510716 325.763033 
Q 423.712914 325.434227 423.567339 324.977491 
Q 423.374576 324.372702 422.700947 324.135438 
Q 422.027626 323.899141 421.211886 324.15914 
Q 420.691284 324.325071 420.480069 324.655685 
Q 420.268853 324.986299 420.404559 325.41207 
Q 420.51559 325.760429 420.747757 325.983835 
Q 420.9812 326.2079 421.329355 326.306928 
Q 421.662813 326.399981 422.03876 326.388884 
Q 422.414707 326.377788 422.77758 326.26213 
z
M 424.465115 324.877888 
Q 424.752255 325.778781 424.426849 326.4869 
Q 424.101443 327.195018 423.293445 327.45255 
Q 422.743813 327.627734 422.199851 327.616698 
Q 421.656857 327.605354 421.164493 327.408384 
Q 420.558346 327.168799 420.149127 326.707618 
Q 419.741184 326.247096 419.517578 325.545541 
Q 419.231363 324.647551 419.55611 323.940708 
Q 419.880857 323.233866 420.69079 322.975717 
Q 421.244293 322.7993 421.786979 322.809676 
Q 422.330632 322.819744 422.826516 323.017724 
Q 423.427909 323.252429 423.834225 323.714535 
Q 424.241509 324.176333 424.465115 324.877888 
z
M 424.630939 332.869607 
Q 424.660463 333.236482 424.48221 333.503292 
Q 424.304924 333.769793 423.956565 333.880825 
Q 423.206627 334.119852 422.582776 333.664188 
Q 421.959892 333.208217 421.628339 332.16798 
Q 421.502811 331.774141 421.445745 331.401121 
Q 421.388679 331.0281 421.40069 330.677833 
L 422.35358 330.563862 
Q 422.281592 330.883144 422.296633 331.227987 
Q 422.311982 331.573798 422.413144 331.891191 
Q 422.575991 332.402117 422.862273 332.638121 
Q 423.149832 332.874785 423.473031 332.771773 
Q 423.743009 332.685723 423.805343 332.416419 
Q 423.867677 332.147116 423.722102 331.690379 
L 423.574677 331.227837 
L 424.371804 331.136862 
L 424.527865 331.626499 
Q 424.6793 332.101621 424.939753 332.323474 
Q 425.200205 332.545326 425.493407 332.451874 
Q 425.72371 332.37847 425.783292 332.147352 
Q 425.843182 331.917203 425.726599 331.551426 
Q 425.644559 331.294028 425.481254 331.012431 
Q 425.318258 330.731801 425.087248 330.445135 
L 425.992807 330.339853 
Q 426.20338 330.666078 426.362178 330.99708 
Q 426.520977 331.328082 426.628924 331.666764 
Q 426.872577 332.431217 426.740834 332.897462 
Q 426.610367 333.364366 426.10815 333.524436 
Q 425.658187 333.667852 425.271811 333.495729 
Q 424.885744 333.324574 424.630939 332.869607 
z
" style="fill:#ffffff;"/>
   </g>
   <g id="text_11">
    <path d="M 366.110994 419.450111 
Q 365.688016 419.744067 365.212122 419.92908 
Q 364.737231 420.113936 364.176239 420.201176 
Q 363.178698 420.356304 362.528858 419.938305 
Q 361.879019 419.520307 361.74293 418.6452 
Q 361.654754 418.078187 361.756136 417.553644 
Q 361.858366 417.027942 362.148793 416.562394 
Q 362.503297 415.993349 363.052837 415.654015 
Q 363.602376 415.314681 364.358059 415.197165 
Q 364.778552 415.131774 365.2188 415.15376 
Q 365.658892 415.174743 366.099202 415.283057 
L 366.065149 416.280211 
Q 365.648301 416.117884 365.26499 416.065459 
Q 364.882526 416.011875 364.513215 416.069306 
Q 363.70334 416.19525 363.2795 416.814136 
Q 362.855504 417.432017 362.987222 418.279024 
Q 363.074462 418.840016 363.418893 419.105081 
Q 363.764171 419.368987 364.303085 419.28518 
Q 364.478708 419.257869 364.650742 419.207476 
Q 364.82262 419.156079 364.993451 419.078122 
L 365.030691 418.141114 
L 364.294076 418.255666 
L 364.321677 417.421913 
L 366.197335 417.130228 
z
M 370.584844 416.281417 
Q 370.499008 415.729457 370.204331 415.480295 
Q 369.910501 415.229973 369.436819 415.303635 
Q 368.809592 415.401175 368.471634 416.030345 
Q 368.134679 416.659359 368.266241 417.505363 
Q 368.350204 418.045279 368.644435 418.304789 
Q 368.938666 418.5643 369.380234 418.495631 
Q 369.741516 418.439448 369.997944 418.244368 
Q 370.25522 418.048129 370.406571 417.719326 
Q 370.549759 417.404127 370.596563 417.03094 
Q 370.643368 416.657753 370.584844 416.281417 
z
M 369.476354 414.401217 
Q 370.410671 414.255921 371.060376 414.686275 
Q 371.710082 415.116628 371.840396 415.954603 
Q 371.92904 416.524627 371.834548 417.060432 
Q 371.739901 417.595234 371.469612 418.051483 
Q 371.139729 418.613616 370.621144 418.947108 
Q 370.103406 419.27944 369.375823 419.392587 
Q 368.444517 419.537415 367.795971 419.107909 
Q 367.147425 418.678403 367.016799 417.838421 
Q 366.927531 417.264383 367.021175 416.729737 
Q 367.114663 416.194088 367.386491 415.734516 
Q 367.71082 415.17633 368.229874 414.845849 
Q 368.748771 414.514364 369.476354 414.401217 
z
M 376.207202 417.328101 
L 378.242427 417.011602 
L 378.208779 417.925438 
L 374.808708 418.454185 
L 374.845279 417.532699 
L 376.602719 415.720734 
Q 376.88986 415.419122 377.020514 415.135679 
Q 377.15217 414.85208 377.114559 414.610222 
Q 377.074606 414.35331 376.877134 414.240122 
Q 376.679505 414.125931 376.362379 414.175247 
Q 376.065325 414.221442 375.71628 414.395979 
Q 375.367236 414.570515 374.94468 414.887018 
L 374.990733 413.861275 
Q 375.392901 413.638391 375.791498 413.49829 
Q 376.190941 413.35703 376.592366 413.294604 
Q 377.306903 413.183486 377.765428 413.428753 
Q 378.224957 413.673864 378.307827 414.206756 
Q 378.378992 414.66438 378.186626 415.079732 
Q 377.994259 415.495085 377.2408 416.268012 
z
" style="fill:#ffffff;stroke:#000000;"/>
    <path d="M 366.110994 419.450111 
Q 365.688016 419.744067 365.212122 419.92908 
Q 364.737231 420.113936 364.176239 420.201176 
Q 363.178698 420.356304 362.528858 419.938305 
Q 361.879019 419.520307 361.74293 418.6452 
Q 361.654754 418.078187 361.756136 417.553644 
Q 361.858366 417.027942 362.148793 416.562394 
Q 362.503297 415.993349 363.052837 415.654015 
Q 363.602376 415.314681 364.358059 415.197165 
Q 364.778552 415.131774 365.2188 415.15376 
Q 365.658892 415.174743 366.099202 415.283057 
L 366.065149 416.280211 
Q 365.648301 416.117884 365.26499 416.065459 
Q 364.882526 416.011875 364.513215 416.069306 
Q 363.70334 416.19525 363.2795 416.814136 
Q 362.855504 417.432017 362.987222 418.279024 
Q 363.074462 418.840016 363.418893 419.105081 
Q 363.764171 419.368987 364.303085 419.28518 
Q 364.478708 419.257869 364.650742 419.207476 
Q 364.82262 419.156079 364.993451 419.078122 
L 365.030691 418.141114 
L 364.294076 418.255666 
L 364.321677 417.421913 
L 366.197335 417.130228 
z
M 370.584844 416.281417 
Q 370.499008 415.729457 370.204331 415.480295 
Q 369.910501 415.229973 369.436819 415.303635 
Q 368.809592 415.401175 368.471634 416.030345 
Q 368.134679 416.659359 368.266241 417.505363 
Q 368.350204 418.045279 368.644435 418.304789 
Q 368.938666 418.5643 369.380234 418.495631 
Q 369.741516 418.439448 369.997944 418.244368 
Q 370.25522 418.048129 370.406571 417.719326 
Q 370.549759 417.404127 370.596563 417.03094 
Q 370.643368 416.657753 370.584844 416.281417 
z
M 369.476354 414.401217 
Q 370.410671 414.255921 371.060376 414.686275 
Q 371.710082 415.116628 371.840396 415.954603 
Q 371.92904 416.524627 371.834548 417.060432 
Q 371.739901 417.595234 371.469612 418.051483 
Q 371.139729 418.613616 370.621144 418.947108 
Q 370.103406 419.27944 369.375823 419.392587 
Q 368.444517 419.537415 367.795971 419.107909 
Q 367.147425 418.678403 367.016799 417.838421 
Q 366.927531 417.264383 367.021175 416.729737 
Q 367.114663 416.194088 367.386491 415.734516 
Q 367.71082 415.17633 368.229874 414.845849 
Q 368.748771 414.514364 369.476354 414.401217 
z
M 376.207202 417.328101 
L 378.242427 417.011602 
L 378.208779 417.925438 
L 374.808708 418.454185 
L 374.845279 417.532699 
L 376.602719 415.720734 
Q 376.88986 415.419122 377.020514 415.135679 
Q 377.15217 414.85208 377.114559 414.610222 
Q 377.074606 414.35331 376.877134 414.240122 
Q 376.679505 414.125931 376.362379 414.175247 
Q 376.065325 414.221442 375.71628 414.395979 
Q 375.367236 414.570515 374.94468 414.887018 
L 374.990733 413.861275 
Q 375.392901 413.638391 375.791498 413.49829 
Q 376.190941 413.35703 376.592366 413.294604 
Q 377.306903 413.183486 377.765428 413.428753 
Q 378.224957 413.673864 378.307827 414.206756 
Q 378.378992 414.66438 378.186626 415.079732 
Q 377.994259 415.495085 377.2408 416.268012 
z
" style="fill:#ffffff;"/>
    <path d="M 368.110994 421.450111 
Q 367.688016 421.744067 367.212122 421.92908 
Q 366.737231 422.113936 366.176239 422.201176 
Q 365.178698 422.356304 364.528858 421.938305 
Q 363.879019 421.520307 363.74293 420.6452 
Q 363.654754 420.078187 363.756136 419.553644 
Q 363.858366 419.027942 364.148793 418.562394 
Q 364.503297 417.993349 365.052837 417.654015 
Q 365.602376 417.314681 366.358059 417.197165 
Q 366.778552 417.131774 367.2188 417.15376 
Q 367.658892 417.174743 368.099202 417.283057 
L 368.065149 418.280211 
Q 367.648301 418.117884 367.26499 418.065459 
Q 366.882526 418.011875 366.513215 418.069306 
Q 365.70334 418.19525 365.2795 418.814136 
Q 364.855504 419.432017 364.987222 420.279024 
Q 365.074462 420.840016 365.418893 421.105081 
Q 365.764171 421.368987 366.303085 421.28518 
Q 366.478708 421.257869 366.650742 421.207476 
Q 366.82262 421.156079 366.993451 421.078122 
L 367.030691 420.141114 
L 366.294076 420.255666 
L 366.321677 419.421913 
L 368.197335 419.130228 
z
M 372.584844 418.281417 
Q 372.499008 417.729457 372.204331 417.480295 
Q 371.910501 417.229973 371.436819 417.303635 
Q 370.809592 417.401175 370.471634 418.030345 
Q 370.134679 418.659359 370.266241 419.505363 
Q 370.350204 420.045279 370.644435 420.304789 
Q 370.938666 420.5643 371.380234 420.495631 
Q 371.741516 420.439448 371.997944 420.244368 
Q 372.25522 420.048129 372.406571 419.719326 
Q 372.549759 419.404127 372.596563 419.03094 
Q 372.643368 418.657753 372.584844 418.281417 
z
M 371.476354 416.401217 
Q 372.410671 416.255921 373.060376 416.686275 
Q 373.710082 417.116628 373.840396 417.954603 
Q 373.92904 418.524627 373.834548 419.060432 
Q 373.739901 419.595234 373.469612 420.051483 
Q 373.139729 420.613616 372.621144 420.947108 
Q 372.103406 421.27944 371.375823 421.392587 
Q 370.444517 421.537415 369.795971 421.107909 
Q 369.147425 420.678403 369.016799 419.838421 
Q 368.927531 419.264383 369.021175 418.729737 
Q 369.114663 418.194088 369.386491 417.734516 
Q 369.71082 417.17633 370.229874 416.845849 
Q 370.748771 416.514364 371.476354 416.401217 
z
M 378.207202 419.328101 
L 380.242427 419.011602 
L 380.208779 419.925438 
L 376.808708 420.454185 
L 376.845279 419.532699 
L 378.602719 417.720734 
Q 378.88986 417.419122 379.020514 417.135679 
Q 379.15217 416.85208 379.114559 416.610222 
Q 379.074606 416.35331 378.877134 416.240122 
Q 378.679505 416.125931 378.362379 416.175247 
Q 378.065325 416.221442 377.71628 416.395979 
Q 377.367236 416.570515 376.94468 416.887018 
L 376.990733 415.861275 
Q 377.392901 415.638391 377.791498 415.49829 
Q 378.190941 415.35703 378.592366 415.294604 
Q 379.306903 415.183486 379.765428 415.428753 
Q 380.224957 415.673864 380.307827 416.206756 
Q 380.378992 416.66438 380.186626 417.079732 
Q 379.994259 417.495085 379.2408 418.268012 
z
" style="fill:#4c4c4c;opacity:0.3;"/>
    <path d="M 366.110994 419.450111 
Q 365.688016 419.744067 365.212122 419.92908 
Q 364.737231 420.113936 364.176239 420.201176 
Q 363.178698 420.356304 362.528858 419.938305 
Q 361.879019 419.520307 361.74293 418.6452 
Q 361.654754 418.078187 361.756136 417.553644 
Q 361.858366 417.027942 362.148793 416.562394 
Q 362.503297 415.993349 363.052837 415.654015 
Q 363.602376 415.314681 364.358059 415.197165 
Q 364.778552 415.131774 365.2188 415.15376 
Q 365.658892 415.174743 366.099202 415.283057 
L 366.065149 416.280211 
Q 365.648301 416.117884 365.26499 416.065459 
Q 364.882526 416.011875 364.513215 416.069306 
Q 363.70334 416.19525 363.2795 416.814136 
Q 362.855504 417.432017 362.987222 418.279024 
Q 363.074462 418.840016 363.418893 419.105081 
Q 363.764171 419.368987 364.303085 419.28518 
Q 364.478708 419.257869 364.650742 419.207476 
Q 364.82262 419.156079 364.993451 419.078122 
L 365.030691 418.141114 
L 364.294076 418.255666 
L 364.321677 417.421913 
L 366.197335 417.130228 
z
M 370.584844 416.281417 
Q 370.499008 415.729457 370.204331 415.480295 
Q 369.910501 415.229973 369.436819 415.303635 
Q 368.809592 415.401175 368.471634 416.030345 
Q 368.134679 416.659359 368.266241 417.505363 
Q 368.350204 418.045279 368.644435 418.304789 
Q 368.938666 418.5643 369.380234 418.495631 
Q 369.741516 418.439448 369.997944 418.244368 
Q 370.25522 418.048129 370.406571 417.719326 
Q 370.549759 417.404127 370.596563 417.03094 
Q 370.643368 416.657753 370.584844 416.281417 
z
M 369.476354 414.401217 
Q 370.410671 414.255921 371.060376 414.686275 
Q 371.710082 415.116628 371.840396 415.954603 
Q 371.92904 416.524627 371.834548 417.060432 
Q 371.739901 417.595234 371.469612 418.051483 
Q 371.139729 418.613616 370.621144 418.947108 
Q 370.103406 419.27944 369.375823 419.392587 
Q 368.444517 419.537415 367.795971 419.107909 
Q 367.147425 418.678403 367.016799 417.838421 
Q 366.927531 417.264383 367.021175 416.729737 
Q 367.114663 416.194088 367.386491 415.734516 
Q 367.71082 415.17633 368.229874 414.845849 
Q 368.748771 414.514364 369.476354 414.401217 
z
M 376.207202 417.328101 
L 378.242427 417.011602 
L 378.208779 417.925438 
L 374.808708 418.454185 
L 374.845279 417.532699 
L 376.602719 415.720734 
Q 376.88986 415.419122 377.020514 415.135679 
Q 377.15217 414.85208 377.114559 414.610222 
Q 377.074606 414.35331 376.877134 414.240122 
Q 376.679505 414.125931 376.362379 414.175247 
Q 376.065325 414.221442 375.71628 414.395979 
Q 375.367236 414.570515 374.94468 414.887018 
L 374.990733 413.861275 
Q 375.392901 413.638391 375.791498 413.49829 
Q 376.190941 413.35703 376.592366 413.294604 
Q 377.306903 413.183486 377.765428 413.428753 
Q 378.224957 413.673864 378.307827 414.206756 
Q 378.378992 414.66438 378.186626 415.079732 
Q 377.994259 415.495085 377.2408 416.268012 
z
" style="fill:#ffffff;"/>
   </g>
   <g id="text_12">
    <path d="M 522.400049 418.099069 
Q 521.907778 418.250694 521.398174 418.282451 
Q 520.889573 418.314365 520.328582 418.227125 
Q 519.33104 418.071996 518.838826 417.476397 
Q 518.346611 416.880797 518.482699 416.00569 
Q 518.570876 415.438677 518.826762 414.969693 
Q 519.083808 414.499862 519.501896 414.144495 
Q 520.012463 413.709978 520.639099 413.553552 
Q 521.265735 413.397125 522.021417 413.514642 
Q 522.44191 413.580033 522.854691 413.734674 
Q 523.267627 413.888311 523.654252 414.125222 
L 523.318994 415.064945 
Q 522.971127 414.783697 522.621838 414.617345 
Q 522.273708 414.450145 521.904397 414.392714 
Q 521.094522 414.26677 520.502756 414.727718 
Q 519.911147 415.187662 519.779429 416.034669 
Q 519.692189 416.595661 519.93986 416.952804 
Q 520.18869 417.3091 520.727603 417.392907 
Q 520.903227 417.420218 521.08244 417.424447 
Q 521.261809 417.427673 521.448246 417.405275 
L 521.768275 416.523826 
L 521.03166 416.409275 
L 521.311149 415.623278 
L 523.186807 415.914962 
z
M 527.62488 416.43862 
Q 527.710716 415.88666 527.505619 415.559778 
Q 527.301682 415.232048 526.828001 415.158385 
Q 526.200774 415.060845 525.687711 415.557673 
Q 525.175652 416.054656 525.04409 416.900659 
Q 524.960127 417.440576 525.161656 417.777182 
Q 525.363185 418.113788 525.804752 418.182456 
Q 526.166035 418.23864 526.469595 418.130644 
Q 526.774314 418.0218 527.018367 417.754487 
Q 527.250512 417.497655 527.408434 417.156306 
Q 527.566356 416.814956 527.62488 416.43862 
z
M 527.139712 414.31059 
Q 528.074029 414.455886 528.562364 415.063217 
Q 529.050699 415.670547 528.920385 416.508522 
Q 528.83174 417.078545 528.578999 417.560353 
Q 528.326414 418.041156 527.930337 418.393778 
Q 527.445327 418.829187 526.849958 418.989448 
Q 526.255748 419.148861 525.528165 419.035714 
Q 524.596859 418.890886 524.109372 418.284715 
Q 523.621885 417.678545 523.752511 416.838563 
Q 523.84178 416.264525 524.093361 415.783565 
Q 524.345098 415.301602 524.743651 414.946281 
Q 525.222171 414.512947 525.817072 414.355697 
Q 526.412129 414.197443 527.139712 414.31059 
z
M 531.511537 419.018529 
L 532.577321 419.18427 
L 533.635095 416.248822 
L 532.460937 416.297491 
L 532.749324 415.500543 
L 533.916457 415.450782 
L 535.063529 415.629164 
L 533.722386 419.362339 
L 534.782148 419.527143 
L 534.492892 420.33629 
L 531.215256 419.826583 
z
" style="fill:#ffffff;stroke:#000000;"/>
    <path d="M 522.400049 418.099069 
Q 521.907778 418.250694 521.398174 418.282451 
Q 520.889573 418.314365 520.328582 418.227125 
Q 519.33104 418.071996 518.838826 417.476397 
Q 518.346611 416.880797 518.482699 416.00569 
Q 518.570876 415.438677 518.826762 414.969693 
Q 519.083808 414.499862 519.501896 414.144495 
Q 520.012463 413.709978 520.639099 413.553552 
Q 521.265735 413.397125 522.021417 413.514642 
Q 522.44191 413.580033 522.854691 413.734674 
Q 523.267627 413.888311 523.654252 414.125222 
L 523.318994 415.064945 
Q 522.971127 414.783697 522.621838 414.617345 
Q 522.273708 414.450145 521.904397 414.392714 
Q 521.094522 414.26677 520.502756 414.727718 
Q 519.911147 415.187662 519.779429 416.034669 
Q 519.692189 416.595661 519.93986 416.952804 
Q 520.18869 417.3091 520.727603 417.392907 
Q 520.903227 417.420218 521.08244 417.424447 
Q 521.261809 417.427673 521.448246 417.405275 
L 521.768275 416.523826 
L 521.03166 416.409275 
L 521.311149 415.623278 
L 523.186807 415.914962 
z
M 527.62488 416.43862 
Q 527.710716 415.88666 527.505619 415.559778 
Q 527.301682 415.232048 526.828001 415.158385 
Q 526.200774 415.060845 525.687711 415.557673 
Q 525.175652 416.054656 525.04409 416.900659 
Q 524.960127 417.440576 525.161656 417.777182 
Q 525.363185 418.113788 525.804752 418.182456 
Q 526.166035 418.23864 526.469595 418.130644 
Q 526.774314 418.0218 527.018367 417.754487 
Q 527.250512 417.497655 527.408434 417.156306 
Q 527.566356 416.814956 527.62488 416.43862 
z
M 527.139712 414.31059 
Q 528.074029 414.455886 528.562364 415.063217 
Q 529.050699 415.670547 528.920385 416.508522 
Q 528.83174 417.078545 528.578999 417.560353 
Q 528.326414 418.041156 527.930337 418.393778 
Q 527.445327 418.829187 526.849958 418.989448 
Q 526.255748 419.148861 525.528165 419.035714 
Q 524.596859 418.890886 524.109372 418.284715 
Q 523.621885 417.678545 523.752511 416.838563 
Q 523.84178 416.264525 524.093361 415.783565 
Q 524.345098 415.301602 524.743651 414.946281 
Q 525.222171 414.512947 525.817072 414.355697 
Q 526.412129 414.197443 527.139712 414.31059 
z
M 531.511537 419.018529 
L 532.577321 419.18427 
L 533.635095 416.248822 
L 532.460937 416.297491 
L 532.749324 415.500543 
L 533.916457 415.450782 
L 535.063529 415.629164 
L 533.722386 419.362339 
L 534.782148 419.527143 
L 534.492892 420.33629 
L 531.215256 419.826583 
z
" style="fill:#ffffff;"/>
    <path d="M 524.400049 420.099069 
Q 523.907778 420.250694 523.398174 420.282451 
Q 522.889573 420.314365 522.328582 420.227125 
Q 521.33104 420.071996 520.838826 419.476397 
Q 520.346611 418.880797 520.482699 418.00569 
Q 520.570876 417.438677 520.826762 416.969693 
Q 521.083808 416.499862 521.501896 416.144495 
Q 522.012463 415.709978 522.639099 415.553552 
Q 523.265735 415.397125 524.021417 415.514642 
Q 524.44191 415.580033 524.854691 415.734674 
Q 525.267627 415.888311 525.654252 416.125222 
L 525.318994 417.064945 
Q 524.971127 416.783697 524.621838 416.617345 
Q 524.273708 416.450145 523.904397 416.392714 
Q 523.094522 416.26677 522.502756 416.727718 
Q 521.911147 417.187662 521.779429 418.034669 
Q 521.692189 418.595661 521.93986 418.952804 
Q 522.18869 419.3091 522.727603 419.392907 
Q 522.903227 419.420218 523.08244 419.424447 
Q 523.261809 419.427673 523.448246 419.405275 
L 523.768275 418.523826 
L 523.03166 418.409275 
L 523.311149 417.623278 
L 525.186807 417.914962 
z
M 529.62488 418.43862 
Q 529.710716 417.88666 529.505619 417.559778 
Q 529.301682 417.232048 528.828001 417.158385 
Q 528.200774 417.060845 527.687711 417.557673 
Q 527.175652 418.054656 527.04409 418.900659 
Q 526.960127 419.440576 527.161656 419.777182 
Q 527.363185 420.113788 527.804752 420.182456 
Q 528.166035 420.23864 528.469595 420.130644 
Q 528.774314 420.0218 529.018367 419.754487 
Q 529.250512 419.497655 529.408434 419.156306 
Q 529.566356 418.814956 529.62488 418.43862 
z
M 529.139712 416.31059 
Q 530.074029 416.455886 530.562364 417.063217 
Q 531.050699 417.670547 530.920385 418.508522 
Q 530.83174 419.078545 530.578999 419.560353 
Q 530.326414 420.041156 529.930337 420.393778 
Q 529.445327 420.829187 528.849958 420.989448 
Q 528.255748 421.148861 527.528165 421.035714 
Q 526.596859 420.890886 526.109372 420.284715 
Q 525.621885 419.678545 525.752511 418.838563 
Q 525.84178 418.264525 526.093361 417.783565 
Q 526.345098 417.301602 526.743651 416.946281 
Q 527.222171 416.512947 527.817072 416.355697 
Q 528.412129 416.197443 529.139712 416.31059 
z
M 533.511537 421.018529 
L 534.577321 421.18427 
L 535.635095 418.248822 
L 534.460937 418.297491 
L 534.749324 417.500543 
L 535.916457 417.450782 
L 537.063529 417.629164 
L 535.722386 421.362339 
L 536.782148 421.527143 
L 536.492892 422.33629 
L 533.215256 421.826583 
z
" style="fill:#4c4c4c;opacity:0.3;"/>
    <path d="M 522.400049 418.099069 
Q 521.907778 418.250694 521.398174 418.282451 
Q 520.889573 418.314365 520.328582 418.227125 
Q 519.33104 418.071996 518.838826 417.476397 
Q 518.346611 416.880797 518.482699 416.00569 
Q 518.570876 415.438677 518.826762 414.969693 
Q 519.083808 414.499862 519.501896 414.144495 
Q 520.012463 413.709978 520.639099 413.553552 
Q 521.265735 413.397125 522.021417 413.514642 
Q 522.44191 413.580033 522.854691 413.734674 
Q 523.267627 413.888311 523.654252 414.125222 
L 523.318994 415.064945 
Q 522.971127 414.783697 522.621838 414.617345 
Q 522.273708 414.450145 521.904397 414.392714 
Q 521.094522 414.26677 520.502756 414.727718 
Q 519.911147 415.187662 519.779429 416.034669 
Q 519.692189 416.595661 519.93986 416.952804 
Q 520.18869 417.3091 520.727603 417.392907 
Q 520.903227 417.420218 521.08244 417.424447 
Q 521.261809 417.427673 521.448246 417.405275 
L 521.768275 416.523826 
L 521.03166 416.409275 
L 521.311149 415.623278 
L 523.186807 415.914962 
z
M 527.62488 416.43862 
Q 527.710716 415.88666 527.505619 415.559778 
Q 527.301682 415.232048 526.828001 415.158385 
Q 526.200774 415.060845 525.687711 415.557673 
Q 525.175652 416.054656 525.04409 416.900659 
Q 524.960127 417.440576 525.161656 417.777182 
Q 525.363185 418.113788 525.804752 418.182456 
Q 526.166035 418.23864 526.469595 418.130644 
Q 526.774314 418.0218 527.018367 417.754487 
Q 527.250512 417.497655 527.408434 417.156306 
Q 527.566356 416.814956 527.62488 416.43862 
z
M 527.139712 414.31059 
Q 528.074029 414.455886 528.562364 415.063217 
Q 529.050699 415.670547 528.920385 416.508522 
Q 528.83174 417.078545 528.578999 417.560353 
Q 528.326414 418.041156 527.930337 418.393778 
Q 527.445327 418.829187 526.849958 418.989448 
Q 526.255748 419.148861 525.528165 419.035714 
Q 524.596859 418.890886 524.109372 418.284715 
Q 523.621885 417.678545 523.752511 416.838563 
Q 523.84178 416.264525 524.093361 415.783565 
Q 524.345098 415.301602 524.743651 414.946281 
Q 525.222171 414.512947 525.817072 414.355697 
Q 526.412129 414.197443 527.139712 414.31059 
z
M 531.511537 419.018529 
L 532.577321 419.18427 
L 533.635095 416.248822 
L 532.460937 416.297491 
L 532.749324 415.500543 
L 533.916457 415.450782 
L 535.063529 415.629164 
L 533.722386 419.362339 
L 534.782148 419.527143 
L 534.492892 420.33629 
L 531.215256 419.826583 
z
" style="fill:#ffffff;"/>
   </g>
   <g id="text_13">
    <text style="font-family:DejaVu Sans;font-size:12px;font-style:normal;font-weight:normal;text-anchor:middle;" transform="rotate(-0, 448.599443, 130.018941)" x="448.599443" y="130.018941">CirGO Visualisation Plot</text>
   </g>
   <g id="legend_1">
    <g id="text_14">
     <text style="font-family:DejaVu Sans;font-size:6.5px;font-style:normal;font-weight:normal;text-anchor:start;" transform="rotate(-0, 805.884834, 151.991925)" x="805.884834" y="151.991925">Name &amp; Proportion of Biological process (inner ring)</text>
    </g>
    <g id="patch_17">
     <path d="M 794.289443 161.532707 
L 807.289443 161.532707 
L 807.289443 156.982707 
L 794.289443 156.982707 
z
" style="fill:#a1c54d;stroke:#ffffff;stroke-linejoin:miter;stroke-width:0.7;"/>
    </g>
    <g id="text_15">
     <text style="font-family:DejaVu Sans;font-size:6.5px;font-style:normal;font-weight:normal;text-anchor:start;" transform="rotate(-0, 812.489443, 161.532707)" x="812.489443" y="161.532707">GO1 null, 54.9%</text>
    </g>
    <g id="patch_18">
     <path d="M 794.289443 171.073488 
L 807.289443 171.073488 
L 807.289443 166.523488 
L 794.289443 166.523488 
z
" style="fill:#943105;stroke:#ffffff;stroke-linejoin:miter;stroke-width:0.7;"/>
    </g>
    <g id="text_16">
     <text style="font-family:DejaVu Sans;font-size:6.5px;font-style:normal;font-weight:normal;text-anchor:start;" transform="rotate(-0, 812.489443, 171.073488)" x="812.489443" y="171.073488">GO2 regulation of leukocyte cell-cell adhesion, 35.3%</text>
    </g>
    <g id="patch_19">
     <path d="M 794.289443 180.614269 
L 807.289443 180.614269 
L 807.289443 176.064269 
L 794.289443 176.064269 
z
" style="fill:#0cc0aa;stroke:#ffffff;stroke-linejoin:miter;stroke-width:0.7;"/>
    </g>
    <g id="text_17">
     <text style="font-family:DejaVu Sans;font-size:6.5px;font-style:normal;font-weight:normal;text-anchor:start;" transform="rotate(-0, 812.489443, 180.614269)" x="812.489443" y="180.614269">GO3 T cell proliferation, 9.8%</text>
    </g>
   </g>
  </g>
 </g>
</svg>
